<svg xmlns="http://www.w3.org/2000/svg" x="0px" y="0px" width="100" height="100" viewBox="0,0,300,150">
<defs><linearGradient x1="57.835" y1="20.064" x2="57.835" y2="40.005" gradientUnits="userSpaceOnUse" id="color-1_69456_gr1"><stop offset="0" stop-color="#1a6dff"></stop><stop offset="1" stop-color="#c822ff"></stop></linearGradient><linearGradient x1="40" y1="25.064" x2="40" y2="45.005" gradientUnits="userSpaceOnUse" id="color-2_69456_gr2"><stop offset="0" stop-color="#1a6dff"></stop><stop offset="1" stop-color="#c822ff"></stop></linearGradient><linearGradient x1="49.515" y1="24.064" x2="49.515" y2="44.005" gradientUnits="userSpaceOnUse" id="color-3_69456_gr3"><stop offset="0" stop-color="#1a6dff"></stop><stop offset="1" stop-color="#c822ff"></stop></linearGradient><linearGradient x1="41.5" y1="24.064" x2="41.5" y2="44.005" gradientUnits="userSpaceOnUse" id="color-4_69456_gr4"><stop offset="0" stop-color="#1a6dff"></stop><stop offset="1" stop-color="#c822ff"></stop></linearGradient><linearGradient x1="41.5" y1="23.064" x2="41.5" y2="43.005" gradientUnits="userSpaceOnUse" id="color-5_69456_gr5"><stop offset="0" stop-color="#1a6dff"></stop><stop offset="1" stop-color="#c822ff"></stop></linearGradient><linearGradient x1="59" y1="25.064" x2="59" y2="45.005" gradientUnits="userSpaceOnUse" id="color-6_69456_gr6"><stop offset="0" stop-color="#1a6dff"></stop><stop offset="1" stop-color="#c822ff"></stop></linearGradient><linearGradient x1="41.82" y1="21.064" x2="41.82" y2="41.005" gradientUnits="userSpaceOnUse" id="color-7_69456_gr7"><stop offset="0" stop-color="#1a6dff"></stop><stop offset="1" stop-color="#c822ff"></stop></linearGradient><linearGradient x1="43.975" y1="22.064" x2="43.975" y2="42.005" gradientUnits="userSpaceOnUse" id="color-8_69456_gr8"><stop offset="0" stop-color="#1a6dff"></stop><stop offset="1" stop-color="#c822ff"></stop></linearGradient><linearGradient x1="49.505" y1="23.064" x2="49.505" y2="43.005" gradientUnits="userSpaceOnUse" id="color-9_69456_gr9"><stop offset="0" stop-color="#1a6dff"></stop><stop offset="1" stop-color="#c822ff"></stop></linearGradient><linearGradient x1="57.5" y1="23.064" x2="57.5" y2="43.005" gradientUnits="userSpaceOnUse" id="color-10_69456_gr10"><stop offset="0" stop-color="#1a6dff"></stop><stop offset="1" stop-color="#c822ff"></stop></linearGradient><linearGradient x1="40" y1="26.064" x2="40" y2="46.005" gradientUnits="userSpaceOnUse" id="color-11_69456_gr11"><stop offset="0" stop-color="#1a6dff"></stop><stop offset="1" stop-color="#c822ff"></stop></linearGradient><linearGradient x1="41.165" y1="20.064" x2="41.165" y2="40.005" gradientUnits="userSpaceOnUse" id="color-12_69456_gr12"><stop offset="0" stop-color="#1a6dff"></stop><stop offset="1" stop-color="#c822ff"></stop></linearGradient><linearGradient x1="49.535" y1="26.064" x2="49.535" y2="46.005" gradientUnits="userSpaceOnUse" id="color-13_69456_gr13"><stop offset="0" stop-color="#1a6dff"></stop><stop offset="1" stop-color="#c822ff"></stop></linearGradient><linearGradient x1="59" y1="26.064" x2="59" y2="46.005" gradientUnits="userSpaceOnUse" id="color-14_69456_gr14"><stop offset="0" stop-color="#1a6dff"></stop><stop offset="1" stop-color="#c822ff"></stop></linearGradient><linearGradient x1="57.18" y1="21.064" x2="57.18" y2="41.005" gradientUnits="userSpaceOnUse" id="color-15_69456_gr15"><stop offset="0" stop-color="#1a6dff"></stop><stop offset="1" stop-color="#c822ff"></stop></linearGradient><linearGradient x1="49.525" y1="25.064" x2="49.525" y2="45.005" gradientUnits="userSpaceOnUse" id="color-16_69456_gr16"><stop offset="0" stop-color="#1a6dff"></stop><stop offset="1" stop-color="#c822ff"></stop></linearGradient><linearGradient x1="57.5" y1="24.064" x2="57.5" y2="44.005" gradientUnits="userSpaceOnUse" id="color-17_69456_gr17"><stop offset="0" stop-color="#1a6dff"></stop><stop offset="1" stop-color="#c822ff"></stop></linearGradient><linearGradient x1="55.025" y1="22.064" x2="55.025" y2="42.005" gradientUnits="userSpaceOnUse" id="color-18_69456_gr18"><stop offset="0" stop-color="#1a6dff"></stop><stop offset="1" stop-color="#c822ff"></stop></linearGradient><linearGradient x1="6" y1="20" x2="6" y2="39.807" gradientUnits="userSpaceOnUse" id="color-19_69456_gr19"><stop offset="0" stop-color="#1a6dff"></stop><stop offset="1" stop-color="#c822ff"></stop></linearGradient><linearGradient x1="6" y1="21" x2="6" y2="40.807" gradientUnits="userSpaceOnUse" id="color-20_69456_gr20"><stop offset="0" stop-color="#1a6dff"></stop><stop offset="1" stop-color="#c822ff"></stop></linearGradient><linearGradient x1="6" y1="22" x2="6" y2="41.807" gradientUnits="userSpaceOnUse" id="color-21_69456_gr21"><stop offset="0" stop-color="#1a6dff"></stop><stop offset="1" stop-color="#c822ff"></stop></linearGradient><linearGradient x1="6" y1="23" x2="6" y2="42.807" gradientUnits="userSpaceOnUse" id="color-22_69456_gr22"><stop offset="0" stop-color="#1a6dff"></stop><stop offset="1" stop-color="#c822ff"></stop></linearGradient><linearGradient x1="6" y1="24" x2="6" y2="43.807" gradientUnits="userSpaceOnUse" id="color-23_69456_gr23"><stop offset="0" stop-color="#1a6dff"></stop><stop offset="1" stop-color="#c822ff"></stop></linearGradient><linearGradient x1="6" y1="25" x2="6" y2="44.807" gradientUnits="userSpaceOnUse" id="color-24_69456_gr24"><stop offset="0" stop-color="#1a6dff"></stop><stop offset="1" stop-color="#c822ff"></stop></linearGradient><linearGradient x1="6" y1="26" x2="6" y2="45.807" gradientUnits="userSpaceOnUse" id="color-25_69456_gr25"><stop offset="0" stop-color="#1a6dff"></stop><stop offset="1" stop-color="#c822ff"></stop></linearGradient><linearGradient x1="23.11" y1="20.193" x2="23.11" y2="39.895" gradientUnits="userSpaceOnUse" id="color-26_69456_gr26"><stop offset="0" stop-color="#8ab4ff"></stop><stop offset="1" stop-color="#e492ff"></stop></linearGradient><linearGradient x1="23.99" y1="21.193" x2="23.99" y2="40.895" gradientUnits="userSpaceOnUse" id="color-27_69456_gr27"><stop offset="0" stop-color="#8ab4ff"></stop><stop offset="1" stop-color="#e492ff"></stop></linearGradient><linearGradient x1="24.025" y1="23.193" x2="24.025" y2="42.895" gradientUnits="userSpaceOnUse" id="color-28_69456_gr28"><stop offset="0" stop-color="#8ab4ff"></stop><stop offset="1" stop-color="#e492ff"></stop></linearGradient><linearGradient x1="23.11" y1="26.193" x2="23.11" y2="45.895" gradientUnits="userSpaceOnUse" id="color-29_69456_gr29"><stop offset="0" stop-color="#8ab4ff"></stop><stop offset="1" stop-color="#e492ff"></stop></linearGradient><linearGradient x1="23.985" y1="25.193" x2="23.985" y2="44.895" gradientUnits="userSpaceOnUse" id="color-30_69456_gr30"><stop offset="0" stop-color="#8ab4ff"></stop><stop offset="1" stop-color="#e492ff"></stop></linearGradient><linearGradient x1="30.61" y1="22.193" x2="30.61" y2="41.895" gradientUnits="userSpaceOnUse" id="color-31_69456_gr31"><stop offset="0" stop-color="#8ab4ff"></stop><stop offset="1" stop-color="#e492ff"></stop></linearGradient><linearGradient x1="20" y1="22.193" x2="20" y2="41.895" gradientUnits="userSpaceOnUse" id="color-32_69456_gr32"><stop offset="0" stop-color="#8ab4ff"></stop><stop offset="1" stop-color="#e492ff"></stop></linearGradient><linearGradient x1="30.575" y1="24.193" x2="30.575" y2="43.895" gradientUnits="userSpaceOnUse" id="color-33_69456_gr33"><stop offset="0" stop-color="#8ab4ff"></stop><stop offset="1" stop-color="#e492ff"></stop></linearGradient><linearGradient x1="20" y1="24.193" x2="20" y2="43.895" gradientUnits="userSpaceOnUse" id="color-34_69456_gr34"><stop offset="0" stop-color="#8ab4ff"></stop><stop offset="1" stop-color="#e492ff"></stop></linearGradient></defs><g fill="none" fill-rule="nonzero" stroke="none" stroke-width="1" stroke-linecap="butt" stroke-linejoin="miter" stroke-miterlimit="10" stroke-dasharray="" stroke-dashoffset="0" font-family="none" font-weight="none" font-size="none" text-anchor="none" style="mix-blend-mode: normal"><g transform="scale(4,4)"><path d="M63,20v2h-10.33l0.65,-2z" fill="url(#color-1_69456_gr1)"></path><path d="M36,40h8v2h-8z" fill="url(#color-2_69456_gr2)"></path><path d="M53.22,36l-0.74,2h-5.92l-0.75,-2z" fill="url(#color-3_69456_gr3)"></path><path d="M39,36h5v2h-5z" fill="url(#color-4_69456_gr4)"></path><path d="M39,32h5v2h-5z" fill="url(#color-5_69456_gr5)"></path><path d="M55,40h8v2h-8z" fill="url(#color-6_69456_gr6)"></path><path d="M47.64,26h-11.64v-2h10.99z" fill="url(#color-7_69456_gr7)"></path><path d="M48.95,30h-9.95v-2h9.3z" fill="url(#color-8_69456_gr8)"></path><path d="M54.7,32l-0.74,2h-8.9l-0.75,-2z" fill="url(#color-9_69456_gr9)"></path><path d="M55,32h5v2h-5z" fill="url(#color-10_69456_gr10)"></path><path d="M36,44h8v2h-8z" fill="url(#color-11_69456_gr11)"></path><path d="M46.33,22h-10.33v-2h9.68z" fill="url(#color-12_69456_gr12)"></path><path d="M50.28,44l-0.74,2l-0.75,-2z" fill="url(#color-13_69456_gr13)"></path><path d="M55,44h8v2h-8z" fill="url(#color-14_69456_gr14)"></path><path d="M63,24v2h-11.64l0.65,-2z" fill="url(#color-15_69456_gr15)"></path><path d="M51.75,40l-0.73,2h-2.98l-0.74,-2z" fill="url(#color-16_69456_gr16)"></path><path d="M55,36h5v2h-5z" fill="url(#color-17_69456_gr17)"></path><path d="M60,28v2h-9.95l0.65,-2z" fill="url(#color-18_69456_gr18)"></path><path d="M1,20h10v2h-10z" fill="url(#color-19_69456_gr19)"></path><path d="M1,24h10v2h-10z" fill="url(#color-20_69456_gr20)"></path><path d="M3,28h6v2h-6z" fill="url(#color-21_69456_gr21)"></path><path d="M3,32h6v2h-6z" fill="url(#color-22_69456_gr22)"></path><path d="M3,36h6v2h-6z" fill="url(#color-23_69456_gr23)"></path><path d="M1,40h10v2h-10z" fill="url(#color-24_69456_gr24)"></path><path d="M1,44h10v2h-10z" fill="url(#color-25_69456_gr25)"></path><path d="M32.22,22h-18.22v-2h13.75c1.77,0 3.34,0.77 4.47,2z" fill="url(#color-26_69456_gr26)"></path><path d="M33.98,26h-19.98v-2h19.51c0.26,0.62 0.42,1.29 0.47,2z" fill="url(#color-27_69456_gr27)"></path><path d="M27.75,33c1.22,0 2.34,0.37 3.3,1h-14.05v-2h14.05c-0.96,0.63 -2.08,1 -3.3,1z" fill="url(#color-28_69456_gr28)"></path><path d="M32.22,44c-1.13,1.23 -2.7,2 -4.47,2h-13.75v-2z" fill="url(#color-29_69456_gr29)"></path><path d="M33.97,40c-0.04,0.71 -0.2,1.37 -0.46,2h-19.51v-2z" fill="url(#color-30_69456_gr30)"></path><path d="M33.83,28c-0.16,0.73 -0.45,1.4 -0.85,2h-5.59c0.21,-0.19 0.36,-0.48 0.36,-0.9v-1.1z" fill="url(#color-31_69456_gr31)"></path><path d="M17,28h6v2h-6z" fill="url(#color-32_69456_gr32)"></path><path d="M27.75,38v-1.1c0,-0.41 -0.18,-0.69 -0.41,-0.9h5.64c0.38,0.6 0.66,1.28 0.83,2z" fill="url(#color-33_69456_gr33)"></path><path d="M17,36h6v2h-6z" fill="url(#color-34_69456_gr34)"></path></g></g>
</svg>