<svg xmlns="http://www.w3.org/2000/svg" x="0px" y="0px" width="100" height="100" viewBox="0,0,300,150">
<defs><linearGradient x1="18.027" y1="13.629" x2="18.027" y2="42.601" gradientUnits="userSpaceOnUse" id="color-1_ngsskusUeWvH_gr1"><stop offset="0" stop-color="#8ab4ff"></stop><stop offset="1" stop-color="#e492ff"></stop></linearGradient><linearGradient x1="27.531" y1="16.584" x2="27.531" y2="47.459" gradientUnits="userSpaceOnUse" id="color-2_ngsskusUeWvH_gr2"><stop offset="0" stop-color="#1a6dff"></stop><stop offset="1" stop-color="#c822ff"></stop></linearGradient><linearGradient x1="32" y1="16.584" x2="32" y2="47.459" gradientUnits="userSpaceOnUse" id="color-3_ngsskusUeWvH_gr3"><stop offset="0" stop-color="#1a6dff"></stop><stop offset="1" stop-color="#c822ff"></stop></linearGradient><linearGradient x1="16.311" y1="16.584" x2="16.311" y2="47.459" gradientUnits="userSpaceOnUse" id="color-4_ngsskusUeWvH_gr4"><stop offset="0" stop-color="#1a6dff"></stop><stop offset="1" stop-color="#c822ff"></stop></linearGradient></defs><g fill="none" fill-rule="nonzero" stroke="none" stroke-width="1" stroke-linecap="butt" stroke-linejoin="miter" stroke-miterlimit="10" stroke-dasharray="" stroke-dashoffset="0" font-family="none" font-weight="none" font-size="none" text-anchor="none" style="mix-blend-mode: normal"><g transform="scale(4,4)"><path d="M29.691,21.596v6.567c-0.822,-0.868 -1.872,-1.379 -3.023,-1.379c-2.219,0 -4.074,1.927 -4.594,4.54c-0.027,-0.073 -0.036,-0.155 -0.064,-0.219c-0.795,-2.265 -2.95,-3.891 -5.498,-3.891c-2.101,0 -3.937,1.114 -4.96,2.786v-2.357h-5.189v-2.594h5.188v-3.453h-9.508v16.414h4.32v-6.905h4.658c-0.219,0.603 -0.338,1.26 -0.338,1.936c0,1.562 0.603,2.959 1.589,3.991c0.046,0.046 0.082,0.091 0.119,0.137c1.059,1.05 2.512,1.708 4.119,1.708c3.59,0 5.462,-3.48 5.59,-4.32l-0.128,-0.868c0.329,2.932 2.302,5.188 4.695,5.188c1.151,0 1.909,-0.301 3.023,-1.726v0.859l4.32,-0.018v-16.396z" fill="url(#color-1_ngsskusUeWvH_gr1)"></path><path d="M29.691,32.392c0,1.675 -0.97,3.033 -2.155,3.033c-1.195,0 -2.165,-1.358 -2.165,-3.033c0,-1.665 0.97,-3.023 2.165,-3.023c1.184,-0.001 2.155,1.358 2.155,3.023z" fill="url(#color-2_ngsskusUeWvH_gr2)"></path><path d="M58.871,32.841l4.871,-5.535c0.581,-0.66 0.112,-1.696 -0.767,-1.696h-7.638l-0.613,0.695l-0.296,0.337l-0.296,-0.337l-0.603,-0.695h-5.382v-5.035c0,-0.564 -0.457,-1.021 -1.021,-1.021h-18.457c-0.564,0 -1.021,0.457 -1.021,1.021v4.249c-0.327,-0.051 -0.654,-0.082 -0.981,-0.082c-1.9,0 -3.646,0.919 -4.882,2.451c-1.42,-1.266 -3.289,-2.022 -5.27,-2.022c-1.021,0 -2.012,0.194 -2.921,0.552v-5.148c0,-0.564 -0.457,-1.021 -1.021,-1.021h-11.552c-0.564,-0.001 -1.021,0.457 -1.021,1.021v18.456c0,0.564 0.457,1.021 1.021,1.021h6.363c0.564,0 1.021,-0.457 1.021,-1.021v-5.883h0.235c0.031,1.992 0.786,3.861 2.145,5.291l0.061,0.072l0.102,0.112c1.501,1.481 3.473,2.298 5.566,2.298c2.298,0 4.106,-1.042 5.383,-2.298c1.226,1.43 2.911,2.298 4.77,2.298c1.164,0 2.104,-0.255 2.972,-0.868h0.061l23.828,0.031l0.603,-0.695l0.296,-0.337l0.296,0.337l0.613,0.695h7.64c0.879,0 1.347,-1.036 0.767,-1.696zM34.011,37.989l-4.32,0.02v-0.858c-1.113,1.42 -1.869,1.726 -3.023,1.726c-2.39,0 -4.361,-2.257 -4.698,-5.188h-7.6c0.122,0.337 0.623,1.706 1.91,1.706h0.041c0.562,-0.02 1.093,-0.306 1.471,-0.817l4.31,-0.02c-0.133,0.838 -2.002,4.32 -5.587,4.32c-1.614,0 -3.064,-0.654 -4.126,-1.706c-0.031,-0.051 -0.071,-0.092 -0.112,-0.143c-0.991,-1.032 -1.593,-2.431 -1.593,-3.983c0,-0.684 0.123,-1.338 0.337,-1.941h-4.658v6.904h-4.32v-16.413h9.509v3.452h-5.189v2.594h5.189v2.359c1.021,-1.675 2.86,-2.788 4.964,-2.788c2.543,0 4.698,1.624 5.495,3.891c0.031,0.061 0.031,0.143 0.061,0.214c0.521,-2.604 2.38,-4.535 4.596,-4.535c1.154,0 2.206,0.511 3.023,1.379v-6.567h4.32zM46.104,25.252h-5.485v2.4h5.485v3.462h-5.485v3.268h5.485v3.656h-10.05v-16.442h10.05zM56.256,38.04l-1.828,-2.084l-1.828,2.084h-4.453l4.565,-5.199l-4.565,-5.188h4.453l1.828,2.073l1.828,-2.073h4.463l-4.576,5.188l4.576,5.199z" fill="url(#color-3_ngsskusUeWvH_gr3)"></path><path d="M18.262,31.105h-3.902c0.337,-1.042 1.093,-1.757 1.961,-1.757c0.858,0 1.614,0.715 1.941,1.757z" fill="url(#color-4_ngsskusUeWvH_gr4)"></path></g></g>
</svg>