<svg xmlns="http://www.w3.org/2000/svg" x="0px" y="0px" width="100" height="100" viewBox="0,0,300,150">
<defs><linearGradient x1="41.454" y1="21.588" x2="41.454" y2="42.034" gradientUnits="userSpaceOnUse" id="color-1_LpADxmzQlzPO_gr1"><stop offset="0" stop-color="#8ab4ff"></stop><stop offset="1" stop-color="#e492ff"></stop></linearGradient><linearGradient x1="8.674" y1="21.588" x2="8.674" y2="42.034" gradientUnits="userSpaceOnUse" id="color-2_LpADxmzQlzPO_gr2"><stop offset="0" stop-color="#8ab4ff"></stop><stop offset="1" stop-color="#e492ff"></stop></linearGradient><linearGradient x1="27.541" y1="27.963" x2="27.541" y2="42.006" gradientUnits="userSpaceOnUse" id="color-3_LpADxmzQlzPO_gr3"><stop offset="0" stop-color="#8ab4ff"></stop><stop offset="1" stop-color="#e492ff"></stop></linearGradient><linearGradient x1="55.31" y1="27.963" x2="55.31" y2="42.006" gradientUnits="userSpaceOnUse" id="color-4_LpADxmzQlzPO_gr4"><stop offset="0" stop-color="#8ab4ff"></stop><stop offset="1" stop-color="#e492ff"></stop></linearGradient><linearGradient x1="41.454" y1="20.588" x2="41.454" y2="43.034" gradientUnits="userSpaceOnUse" id="color-5_LpADxmzQlzPO_gr5"><stop offset="0" stop-color="#1a6dff"></stop><stop offset="1" stop-color="#c822ff"></stop></linearGradient><linearGradient x1="8.674" y1="20.588" x2="8.674" y2="43.034" gradientUnits="userSpaceOnUse" id="color-6_LpADxmzQlzPO_gr6"><stop offset="0" stop-color="#1a6dff"></stop><stop offset="1" stop-color="#c822ff"></stop></linearGradient><linearGradient x1="27.541" y1="26.963" x2="27.541" y2="43.006" gradientUnits="userSpaceOnUse" id="color-7_LpADxmzQlzPO_gr7"><stop offset="0" stop-color="#1a6dff"></stop><stop offset="1" stop-color="#c822ff"></stop></linearGradient><linearGradient x1="55.31" y1="26.963" x2="55.31" y2="43.006" gradientUnits="userSpaceOnUse" id="color-8_LpADxmzQlzPO_gr8"><stop offset="0" stop-color="#1a6dff"></stop><stop offset="1" stop-color="#c822ff"></stop></linearGradient></defs><g fill="none" fill-rule="nonzero" stroke="none" stroke-width="1" stroke-linecap="butt" stroke-linejoin="miter" stroke-miterlimit="10" stroke-dasharray="" stroke-dashoffset="0" font-family="none" font-weight="none" font-size="none" text-anchor="none" style="mix-blend-mode: normal"><g transform="scale(4,4)"><rect x="38.985" y="21.588" width="4.939" height="20.446" fill="url(#color-1_LpADxmzQlzPO_gr1)"></rect><path d="M10.756,27.963h-3.159c-1.12,0 -1.666,0.287 -1.666,0.287v-6.662h-4.938v20.417h4.911v-8.213c0,-0.718 0.603,-1.321 1.321,-1.321h2.872c0.718,0 1.321,0.603 1.321,1.321v8.242h4.939v-8.902c-0.001,-3.733 -2.499,-5.169 -5.601,-5.169z" fill="url(#color-2_LpADxmzQlzPO_gr2)"></path><path d="M30.312,36.205c0,0.718 -0.603,1.321 -1.321,1.321h-2.871c-0.718,0 -1.321,-0.603 -1.321,-1.321v-8.242h-4.939v8.644c0,3.532 2.269,5.399 5.6,5.399h4.824c3.073,0 4.939,-2.211 4.939,-5.399v-8.644h-4.939c-0.001,0 0.028,7.983 0.028,8.242z" fill="url(#color-3_LpADxmzQlzPO_gr3)"></path><path d="M58.052,27.963c0.029,0 0.029,7.983 0.029,8.242c0,0.718 -0.603,1.321 -1.321,1.321h-2.872c-0.718,0 -1.321,-0.603 -1.321,-1.321v-8.242h-4.939v8.644c0,3.532 2.269,5.399 5.6,5.399h4.824c3.073,0 4.939,-2.211 4.939,-5.399v-8.644z" fill="url(#color-4_LpADxmzQlzPO_gr4)"></path><g><path d="M43.924,43.034h-4.939c-0.552,0 -1,-0.448 -1,-1v-20.446c0,-0.552 0.448,-1 1,-1h4.939c0.552,0 1,0.448 1,1v20.446c0,0.552 -0.448,1 -1,1zM39.984,41.034h2.939v-18.446h-2.939z" fill="url(#color-5_LpADxmzQlzPO_gr5)"></path><path d="M16.356,43.034h-4.939c-0.552,0 -1,-0.448 -1,-1v-8.242c0,-0.165 -0.156,-0.321 -0.321,-0.321h-2.872c-0.165,0 -0.321,0.156 -0.321,0.321v8.213c0,0.552 -0.448,1 -1,1h-4.91c-0.552,0 -1,-0.448 -1,-1v-20.417c0,-0.552 0.448,-1 1,-1h4.939c0.552,0 1,0.448 1,1v5.406c0.201,-0.02 0.423,-0.031 0.666,-0.031h3.159c4.132,0 6.6,2.306 6.6,6.169v8.902c-0.001,0.552 -0.449,1 -1.001,1zM12.417,41.034h2.939v-7.902c0,-2.766 -1.547,-4.169 -4.6,-4.169h-3.158c-0.815,0 -1.219,0.182 -1.224,0.184c-0.309,0.143 -0.683,0.124 -0.97,-0.061c-0.287,-0.184 -0.473,-0.495 -0.473,-0.836v-5.662h-2.938v18.417h2.911v-7.213c0,-1.28 1.041,-2.321 2.321,-2.321h2.872c1.28,0 2.321,1.041 2.321,2.321v7.242z" fill="url(#color-6_LpADxmzQlzPO_gr6)"></path><g fill="url(#color-7_LpADxmzQlzPO_gr7)"><path d="M30.283,43.006h-4.824c-4.071,0 -6.6,-2.452 -6.6,-6.399v-8.644c0,-0.552 0.448,-1 1,-1h4.939c0.552,0 1,0.448 1,1v8.242c0,0.165 0.156,0.321 0.321,0.321h2.872c0.165,0 0.321,-0.156 0.321,-0.321c0,-0.259 -0.029,-8.238 -0.029,-8.238c-0.001,-0.266 0.104,-0.521 0.292,-0.709c0.188,-0.188 0.443,-0.294 0.708,-0.294h4.939c0.552,0 1,0.448 1,1v8.644c0.001,3.826 -2.386,6.398 -5.939,6.398zM20.859,28.963v7.644c0,3.828 2.882,4.399 4.6,4.399h4.824c2.43,0 3.939,-1.686 3.939,-4.399v-7.644h-2.936c0.008,2.154 0.025,7.04 0.025,7.242c0,1.28 -1.041,2.321 -2.321,2.321h-2.87c-1.28,0 -2.321,-1.041 -2.321,-2.321v-7.242z"></path></g><g fill="url(#color-8_LpADxmzQlzPO_gr8)"><path d="M58.052,43.006h-4.824c-4.071,0 -6.6,-2.452 -6.6,-6.399v-8.644c0,-0.552 0.448,-1 1,-1h4.939c0.552,0 1,0.448 1,1v8.242c0,0.165 0.156,0.321 0.321,0.321h2.872c0.165,0 0.321,-0.156 0.321,-0.321c0,-0.259 -0.029,-8.238 -0.029,-8.238c-0.001,-0.266 0.104,-0.521 0.292,-0.709c0.188,-0.188 0.443,-0.294 0.708,-0.294h4.939c0.552,0 1,0.448 1,1v8.644c0.001,3.826 -2.386,6.398 -5.939,6.398zM48.628,28.963v7.644c0,3.828 2.882,4.399 4.6,4.399h4.824c2.43,0 3.939,-1.686 3.939,-4.399v-7.644h-2.936c0.008,2.154 0.025,7.04 0.025,7.242c0,1.28 -1.041,2.321 -2.321,2.321h-2.872c-1.28,0 -2.321,-1.041 -2.321,-2.321v-7.242z"></path></g></g></g></g>
</svg>