<svg xmlns="http://www.w3.org/2000/svg" x="0px" y="0px" width="100" height="100" viewBox="0,0,300,150">
<defs><linearGradient x1="29" y1="28" x2="29" y2="36" gradientUnits="userSpaceOnUse" id="color-1_69475_gr1"><stop offset="0" stop-color="#1a6dff"></stop><stop offset="1" stop-color="#c822ff"></stop></linearGradient><linearGradient x1="50" y1="28" x2="50" y2="35.999" gradientUnits="userSpaceOnUse" id="color-2_69475_gr2"><stop offset="0" stop-color="#1a6dff"></stop><stop offset="1" stop-color="#c822ff"></stop></linearGradient><linearGradient x1="18.5" y1="28" x2="18.5" y2="36" gradientUnits="userSpaceOnUse" id="color-3_69475_gr3"><stop offset="0" stop-color="#1a6dff"></stop><stop offset="1" stop-color="#c822ff"></stop></linearGradient><linearGradient x1="7" y1="28" x2="7" y2="36" gradientUnits="userSpaceOnUse" id="color-4_69475_gr4"><stop offset="0" stop-color="#1a6dff"></stop><stop offset="1" stop-color="#c822ff"></stop></linearGradient><linearGradient x1="7" y1="29.33" x2="7" y2="34.67" gradientUnits="userSpaceOnUse" id="color-5_69475_gr5"><stop offset="0" stop-color="#8ab4ff"></stop><stop offset="1" stop-color="#e492ff"></stop></linearGradient><linearGradient x1="39" y1="28" x2="39" y2="36" gradientUnits="userSpaceOnUse" id="color-6_69475_gr6"><stop offset="0" stop-color="#1a6dff"></stop><stop offset="1" stop-color="#c822ff"></stop></linearGradient><linearGradient x1="59" y1="28" x2="59" y2="36" gradientUnits="userSpaceOnUse" id="color-7_69475_gr7"><stop offset="0" stop-color="#1a6dff"></stop><stop offset="1" stop-color="#c822ff"></stop></linearGradient></defs><g fill="none" fill-rule="nonzero" stroke="none" stroke-width="1" stroke-linecap="butt" stroke-linejoin="miter" stroke-miterlimit="10" stroke-dasharray="" stroke-dashoffset="0" font-family="none" font-weight="none" font-size="none" text-anchor="none" style="mix-blend-mode: normal"><g transform="scale(4,4)"><path d="M27.75,33.333h3.451l-2.201,-4l-3.645,6.667h-1.355l4.18,-7.513c0.181,-0.303 0.484,-0.487 0.82,-0.487c0.325,0 0.628,0.177 0.804,0.475l4.196,7.525h-1.329l-0.737,-1.333h-2.934z" fill="url(#color-1_69475_gr1)"></path><path d="M47.333,34.667v-6.667h-1.333v7.233c0,0.197 0.076,0.389 0.224,0.536c0.147,0.147 0.345,0.229 0.561,0.229h5.881l1.334,-1.333h-6.667z" fill="url(#color-2_69475_gr2)"></path><path d="M20.492,33.333c1.44,0 2.508,-1.132 2.508,-2.627c0,-1.494 -1.068,-2.706 -2.508,-2.706h-6.492v8h1.286v-6.667h5.107c0.689,0 1.322,0.659 1.322,1.373c0,0.715 -0.633,1.296 -1.322,1.296l-3.822,-0.002l4.635,4h1.794l-3.186,-2.667z" fill="url(#color-3_69475_gr3)"></path><path d="M9,28h-3.999c-2.209,0 -4.001,1.903 -4.001,4.111c0,2.208 1.792,3.889 4.001,3.889h3.999c2.209,0 4,-1.788 4,-3.997c0,-2.21 -1.791,-4.003 -4,-4.003zM9.025,34.667h-4.05c-1.459,0 -2.641,-1.191 -2.641,-2.664c0,-1.473 1.183,-2.669 2.641,-2.669h4.052c1.459,0 2.64,1.197 2.64,2.669c0,1.472 -1.182,2.664 -2.642,2.664z" fill="url(#color-4_69475_gr4)"></path><path d="M11.667,32c0,1.47 -1.177,2.67 -2.646,2.67h-4.042c-1.458,0 -2.646,-1.19 -2.646,-2.67c0,-1.47 1.187,-2.67 2.646,-2.67h4.052c1.459,0 2.636,1.2 2.636,2.67z" fill="url(#color-5_69475_gr5)"></path><path d="M44,34.667h-6.274c-1.368,0 -2.476,-1.191 -2.476,-2.664c0,-1.473 1.109,-2.669 2.476,-2.669h5.024l1.25,-1.334h-6.249c-2.071,0 -3.751,1.791 -3.751,4c0,2.209 1.68,4 3.751,4h4.999z" fill="url(#color-6_69475_gr6)"></path><path d="M64,31.333c0,0 -6.369,0 -8.661,0c0.278,-1.148 1.236,-2 2.388,-2h5.024l1.249,-1.333h-6.249c-2.071,0 -3.751,1.791 -3.751,4c0,2.209 1.68,4 3.751,4h4.999l1.25,-1.333h-6.274c-1.154,0 -2.114,-0.851 -2.389,-2h7.412z" fill="url(#color-7_69475_gr7)"></path></g></g>
</svg>