<svg xmlns="http://www.w3.org/2000/svg" x="0px" y="0px" width="100" height="100" viewBox="0,0,300,150">
<defs><linearGradient x1="32" y1="13.251" x2="32" y2="46.211" gradientUnits="userSpaceOnUse" id="color-1_5CLSNos6pTuq_gr1"><stop offset="0" stop-color="#1a6dff"></stop><stop offset="1" stop-color="#c822ff"></stop></linearGradient><linearGradient x1="9.5" y1="20.524" x2="9.5" y2="34.35" gradientUnits="userSpaceOnUse" id="color-2_5CLSNos6pTuq_gr2"><stop offset="0" stop-color="#8ab4ff"></stop><stop offset="1" stop-color="#e492ff"></stop></linearGradient><linearGradient x1="38.5" y1="20.597" x2="38.5" y2="34.822" gradientUnits="userSpaceOnUse" id="color-3_5CLSNos6pTuq_gr3"><stop offset="0" stop-color="#8ab4ff"></stop><stop offset="1" stop-color="#e492ff"></stop></linearGradient><linearGradient x1="23.5" y1="21.402" x2="23.5" y2="34.09" gradientUnits="userSpaceOnUse" id="color-4_5CLSNos6pTuq_gr4"><stop offset="0" stop-color="#8ab4ff"></stop><stop offset="1" stop-color="#e492ff"></stop></linearGradient></defs><g fill="none" fill-rule="nonzero" stroke="none" stroke-width="1" stroke-linecap="butt" stroke-linejoin="miter" stroke-miterlimit="10" stroke-dasharray="" stroke-dashoffset="0" font-family="none" font-weight="none" font-size="none" text-anchor="none" style="mix-blend-mode: normal"><g transform="scale(4,4)"><path d="M63.882,13.528c-0.174,-0.325 -0.513,-0.528 -0.882,-0.528h-7c-0.42,0 -0.795,0.263 -0.939,0.657l-1.592,4.361l-1.525,-4.35c-0.141,-0.4 -0.519,-0.668 -0.944,-0.668h-35c-0.552,0 -1,0.448 -1,1v0.586l-1.293,-1.293c-0.187,-0.188 -0.442,-0.293 -0.707,-0.293h-12c-0.369,0 -0.708,0.203 -0.882,0.528c-0.174,0.325 -0.155,0.72 0.05,1.026l1.832,2.749v29.697c0,0.389 0.226,0.743 0.579,0.907c0.135,0.063 0.278,0.093 0.421,0.093c0.232,0 0.462,-0.081 0.646,-0.237l12.425,-10.513l8.374,5.583c0.336,0.224 0.773,0.224 1.109,0l5.446,-3.631l5.445,3.63c0.336,0.224 0.773,0.224 1.109,0l8.392,-5.594l4.429,3.543c0.3,0.24 0.711,0.285 1.058,0.121c0.347,-0.167 0.567,-0.518 0.567,-0.902v-3.506l0.658,1.056c0.183,0.293 0.503,0.471 0.849,0.471c0.357,-0.02 0.667,-0.179 0.85,-0.473l0.643,-1.038v6.49c0,0.304 0.138,0.591 0.375,0.781l5,4c0.299,0.24 0.711,0.286 1.058,0.121c0.347,-0.167 0.567,-0.518 0.567,-0.902v-29.697l1.832,-2.748c0.205,-0.307 0.224,-0.701 0.05,-1.027zM3.832,16.445l-0.963,-1.445h9.717l2.414,2.414v18.122l-11,9.308v-27.844c0,-0.197 -0.059,-0.391 -0.168,-0.555zM25,40.798l-8,-5.333v-18.465v-1v-1h13v22.465zM37,40.798l-5,-3.333v-22.465h13v20.465zM60.168,16.445c-0.109,0.164 -0.168,0.358 -0.168,0.555v27.919l-3,-2.4v-9.519c0,-0.447 -0.296,-0.839 -0.726,-0.962c-0.432,-0.123 -0.889,0.056 -1.124,0.435l-1.646,2.654l-1.656,-2.656c-0.236,-0.377 -0.692,-0.553 -1.124,-0.432c-0.428,0.123 -0.724,0.515 -0.724,0.961v4.919l-3,-2.4v-20.519h3.291l2.215,6.318c0.14,0.398 0.515,0.666 0.938,0.669c0.002,0 0.004,0 0.006,0c0.42,0 0.795,-0.262 0.939,-0.657l2.311,-6.33h4.432z" fill="url(#color-1_5CLSNos6pTuq_gr1)"></path><path d="M7,35l5,-3v-12h-5z" fill="url(#color-2_5CLSNos6pTuq_gr2)"></path><path d="M36,20v15l5,-3v-12z" fill="url(#color-3_5CLSNos6pTuq_gr3)"></path><path d="M21,32l5,3v-15h-5z" fill="url(#color-4_5CLSNos6pTuq_gr4)"></path></g></g>
</svg>